HIERARCHY
ROOT Hips
{
    OFFSET 0.000000 0.000000 0.000000
    CHANNELS 6 Xposition Yposition Zposition Zrotation Xrotation Yrotation
    JOINT Spine
    {
        OFFSET -0.000000 7.979263 0.000000
        CHANNELS 3 Zrotation Xrotation Yrotation
        JOINT Spine1
        {
            OFFSET -0.000000 24.719021 0.000000
            CHANNELS 3 Zrotation Xrotation Yrotation
            JOINT Neck
            {
                OFFSET -0.000000 24.617504 2.237955
                CHANNELS 3 Zrotation Xrotation Yrotation
                JOINT Head
                {
                    OFFSET -0.000000 13.623132 -1.946162
                    CHANNELS 3 Zrotation Xrotation Yrotation
                    End Site
                    {
                        OFFSET -0.000000 24.327021 0.000000
                    }
                }
            }
            JOINT LeftShoulder
            {
                OFFSET 3.885773 23.018444 -0.302444
                CHANNELS 3 Zrotation Xrotation Yrotation
                JOINT LeftArm
                {
                    OFFSET 10.447750 0.000000 0.000000
                    CHANNELS 3 Zrotation Xrotation Yrotation
                    JOINT LeftForeArm
                    {
                        OFFSET 29.090096 0.000000 0.000000
                        CHANNELS 3 Zrotation Xrotation Yrotation
                        JOINT LeftHand
                        {
                            OFFSET 28.893339 0.000000 0.000000
                            CHANNELS 3 Zrotation Xrotation Yrotation
                            End Site
                            {
                                OFFSET 14.596213 0.000000 0.000000
                            }
                        }
                    }
                }
            }
            JOINT RightShoulder
            {
                OFFSET -3.864586 23.018444 -0.302444
                CHANNELS 3 Zrotation Xrotation Yrotation
                JOINT RightArm
                {
                    OFFSET -10.447750 0.000000 0.000000
                    CHANNELS 3 Zrotation Xrotation Yrotation
                    JOINT RightForeArm
                    {
                        OFFSET -29.090096 0.000000 0.000000
                        CHANNELS 3 Zrotation Xrotation Yrotation
                        JOINT RightHand
                        {
                            OFFSET -28.893339 0.000000 0.000000
                            CHANNELS 3 Zrotation Xrotation Yrotation
                            End Site
                            {
                                OFFSET -14.596213 0.000000 0.000000
                            }
                        }
                    }
                }
            }
        }
    }
    JOINT LeftUpLeg
    {
        OFFSET 9.730808 0.000000 0.000000
        CHANNELS 3 Zrotation Xrotation Yrotation
        JOINT LeftLeg
        {
            OFFSET -0.000000 -34.800129 0.000000
            CHANNELS 3 Zrotation Xrotation Yrotation
            JOINT LeftFoot
            {
                OFFSET -0.000000 -44.597416 0.000000
                CHANNELS 3 Zrotation Xrotation Yrotation
                JOINT LeftToeBase
                {
                    OFFSET -0.000000 -6.325025 14.596213
                    CHANNELS 3 Zrotation Xrotation Yrotation
                    End Site
                    {
                        OFFSET -0.000000 0.000000 3.892323
                    }
                }
            }
        }
    }
    JOINT RightUpLeg
    {
        OFFSET -9.730808 0.000000 0.000000
        CHANNELS 3 Zrotation Xrotation Yrotation
        JOINT RightLeg
        {
            OFFSET -0.000000 -34.800129 0.000000
            CHANNELS 3 Zrotation Xrotation Yrotation
            JOINT RightFoot
            {
                OFFSET -0.000000 -44.597416 0.000000
                CHANNELS 3 Zrotation Xrotation Yrotation
                JOINT RightToeBase
                {
                    OFFSET -0.000000 -6.325025 14.596213
                    CHANNELS 3 Zrotation Xrotation Yrotation
                    End Site
                    {
                        OFFSET -0.000000 0.000000 3.892323
                    }
                }
            }
        }
    }
}
MOTION
Frames:    10
Frame Time:    0.008333
1.789323    85.563583    56.354237    1.241199    0.336218    87.404099    -0.808257    -6.131159    0.323758    1.322152    -1.239221    0.381365    1.712189    23.212271    5.791921    -1.876767    -4.929747    5.795884    14.649589    -2.472888    -8.720042    -14.187545    12.205299    4.553962    2.246201    -3.454084    2.829453    -3.919476    -3.533875    0.714877    -16.157269    -0.371879    -3.851831    14.298742    8.705808    10.865608    -1.045273    2.391575    -2.282989    -0.175403    2.369944    0.536225    0.801608    8.619894    -1.122472    -0.521547    -2.657998    0.523048    -3.203143    -3.847244    11.056994    0.000000    0.000000    0.000000    -2.579606    9.129719    1.222122    2.841810    -1.082832    -4.299571    -0.364805    -6.092303    -6.844403    0.000000    0.000000    0.000000    
1.812222    85.566261    56.370018    1.265853    0.314186    87.428406    -0.840449    -6.137983    0.293707    1.386384    -1.221243    0.353598    1.612160    23.272938    5.759426    -1.768181    -5.004438    5.775148    14.617620    -2.476530    -8.728064    -14.166425    12.212750    4.569007    2.267100    -3.494705    2.812742    -3.886639    -3.574930    0.728023    -16.199234    -0.383998    -3.849384    14.317468    8.664993    10.890768    -1.068805    2.334241    -2.250981    -0.161113    2.312614    0.463753    0.843418    8.664674    -1.177187    -0.531699    -2.661391    0.519744    -3.191314    -3.861068    11.084677    0.000000    0.000000    0.000000    -2.529085    9.211787    1.188034    2.814653    -1.149635    -4.342797    -0.348194    -6.050988    -6.791919    0.000000    0.000000    0.000000    
1.804827    85.563087    56.364529    1.223145    0.325172    87.333282    -0.853604    -6.184844    0.332735    1.408553    -1.212878    0.393821    1.617690    23.236914    5.744350    -1.782423    -4.931661    5.757762    14.621151    -2.495895    -8.739011    -14.171036    12.205184    4.568422    2.295710    -3.544485    2.799097    -3.908533    -3.626671    0.769460    -16.215693    -0.400680    -3.859437    14.302031    8.639913    10.911040    -1.065163    2.323755    -2.226401    -0.111650    2.302649    0.457611    0.809512    8.641172    -1.180235    -0.515072    -2.679698    0.578242    -3.200066    -3.862903    11.128677    0.000000    0.000000    0.000000    -2.559829    9.131876    1.210613    2.820705    -1.123484    -4.347215    -0.349393    -6.069583    -6.721181    0.000000    0.000000    0.000000    
1.815391    85.563019    56.367279    1.217099    0.327307    87.298691    -0.861313    -6.213511    0.330549    1.419947    -1.203293    0.392247    1.593556    23.232616    5.745844    -1.769585    -4.873824    5.760847    14.601298    -2.521717    -8.733224    -14.137614    12.193698    4.575439    2.288070    -3.551098    2.783381    -3.911608    -3.632925    0.772807    -16.237778    -0.413299    -3.860280    14.311370    8.629759    10.957263    -1.079458    2.313271    -2.210749    -0.095088    2.292080    0.469783    0.802082    8.648994    -1.190583    -0.508460    -2.682098    0.586241    -3.184543    -3.867814    11.159235    0.000000    0.000000    0.000000    -2.565552    9.127196    1.157769    2.824672    -1.126093    -4.326980    -0.334724    -6.063593    -6.649540    0.000000    0.000000    0.000000    
1.824756    85.561966    56.373154    1.211861    0.327950    87.259773    -0.876132    -6.249470    0.339579    1.429820    -1.179784    0.402216    1.575066    23.247355    5.737227    -1.723704    -4.854237    5.759557    14.615371    -2.532681    -8.743423    -14.138401    12.207930    4.568290    2.289384    -3.580733    2.770402    -3.870891    -3.662835    0.795911    -16.225792    -0.413537    -3.869125    14.284501    8.630716    10.996121    -1.089785    2.311418    -2.192876    0.007528    2.290642    0.484246    0.798859    8.653879    -1.179937    -0.508866    -2.676250    0.589063    -3.175244    -3.881249    11.188954    0.000000    0.000000    0.000000    -2.560740    9.134424    1.163591    2.813039    -1.143265    -4.316106    -0.336125    -6.063018    -6.636698    0.000000    0.000000    0.000000    
1.837338    85.561501    56.377445    1.216948    0.327438    87.224411    -0.892137    -6.270544    0.345672    1.446691    -1.169546    0.409435    1.587848    23.223934    5.711707    -1.730307    -4.756256    5.733771    14.625401    -2.524458    -8.769388    -14.140844    12.184424    4.579880    2.256472    -3.541814    2.792440    -3.775493    -3.616093    0.589274    -16.244513    -0.419399    -3.862483    14.293752    8.633029    11.014127    -1.084922    2.288994    -2.173819    -0.013597    2.268356    0.520378    0.801520    8.661214    -1.192969    -0.518408    -2.652740    0.620647    -3.168942    -3.907179    11.207077    0.000000    0.000000    0.000000    -2.563259    9.149367    1.188370    2.810468    -1.155568    -4.263783    -0.335838    -6.055582    -6.667925    0.000000    0.000000    0.000000    
1.849483    85.560265    56.381504    1.217148    0.332858    87.194267    -0.906605    -6.306110    0.355360    1.445134    -1.141379    0.419763    1.605454    23.272984    5.688328    -1.725987    -4.786267    5.711715    14.644020    -2.518613    -8.796112    -14.143114    12.172915    4.577316    2.208616    -3.586378    2.749646    -3.514899    -3.660879    0.704693    -16.228209    -0.403435    -3.879540    14.279826    8.731048    11.080942    -1.126675    2.230881    -2.215797    -0.009483    2.209085    0.572113    0.794318    8.659164    -1.202904    -0.516818    -2.622841    0.565083    -3.159128    -3.926988    11.303888    0.000000    0.000000    0.000000    -2.573278    9.163921    1.215729    2.814827    -1.167160    -4.245190    -0.325314    -6.069064    -6.694807    0.000000    0.000000    0.000000    
1.864072    85.558685    56.386917    1.229679    0.333946    87.157738    -0.935191    -6.320927    0.371730    1.473294    -1.127310    0.438016    1.625416    23.292191    5.647690    -1.725169    -4.769022    5.671487    14.665762    -2.524527    -8.848440    -14.178655    12.174799    4.599546    2.264146    -3.501876    2.774588    -3.807473    -3.572184    0.469424    -16.219097    -0.390684    -3.910994    14.252238    8.779207    11.120853    -1.128580    2.191053    -2.178173    -0.130175    2.168993    0.559376    0.800137    8.674170    -1.214716    -0.532453    -2.597150    0.548445    -3.147871    -3.957198    11.357377    0.000000    0.000000    0.000000    -2.572958    9.185621    1.215990    2.807727    -1.181905    -4.236502    -0.313643    -6.065437    -6.662632    0.000000    0.000000    0.000000    
1.875308    85.556931    56.391132    1.232161    0.338683    87.129471    -0.970794    -6.351264    0.383375    1.517002    -1.095996    0.451910    1.614170    23.337543    5.620202    -1.712290    -4.815617    5.644484    14.657029    -2.517667    -8.872308    -14.189423    12.200490    4.595502    2.290020    -3.522059    2.726865    -3.870166    -3.595153    0.554127    -16.280037    -0.432275    -3.942222    14.305370    8.792009    11.123188    -1.103162    2.138790    -2.120066    -0.331134    2.116983    0.500128    0.799405    8.671392    -1.213477    -0.541756    -2.560643    0.501287    -3.138779    -3.989607    11.429855    0.000000    0.000000    0.000000    -2.579684    9.192405    1.265238    2.805004    -1.189538    -4.302659    -0.293981    -6.068766    -6.609775    0.000000    0.000000    0.000000    
1.889494    85.556198    56.394970    1.244911    0.344995    87.097816    -0.998974    -6.351859    0.405338    1.533210    -1.112427    0.475834    1.651910    23.363558    5.570897    -1.718072    -4.780235    5.595634    14.682920    -2.496008    -8.951232    -14.234327    12.177249    4.631298    2.306316    -3.519181    2.715645    -3.872104    -3.591626    0.529916    -16.198114    -0.328525    -3.978045    14.214195    8.830223    11.196493    -1.138875    2.081757    -2.143245    -0.333352    2.058956    0.525008    0.792759    8.682210    -1.210992    -0.548196    -2.532092    0.545442    -3.124150    -4.009773    11.418676    0.000000    0.000000    0.000000    -2.591163    9.207476    1.276266    2.807923    -1.179867    -4.262992    -0.307080    -6.086308    -6.627532    0.000000    0.000000    0.000000    
